<svg xmlns="http://www.w3.org/2000/svg" width="512" height="384" viewBox="0 0 512 384"><defs><radialGradient id="fur" cx="0.35" cy="0.3" r="0.8"><stop offset="0" stop-color="#ffd59a"/><stop offset="0.55" stop-color="#e8a25c"/><stop offset="1" stop-color="#b8743c"/></radialGradient><radialGradient id="belly" cx="0.4" cy="0.35" r="0.7"><stop offset="0" stop-color="#fff6e6"/><stop offset="1" stop-color="#f6d2a0"/></radialGradient><radialGradient id="glass" cx="0.35" cy="0.35" r="0.7"><stop offset="0" stop-color="#ffffff"/><stop offset="0.4" stop-color="#9fe3ff"/><stop offset="1" stop-color="#2a6f99"/></radialGradient></defs><g transform="translate(64 122)"><g transform="translate(0 0) rotate(0 0 -30)"><line x1="-16" y1="-38" x2="-9.2" y2="-19.2" stroke="#3b2416" stroke-width="13" stroke-linecap="round"/><line x1="-16" y1="-38" x2="-9.2" y2="-19.2" stroke="#b8743c" stroke-width="8" stroke-linecap="round"/><circle cx="-9.2" cy="-19.2" r="5.6" fill="#f2b8a8" stroke="#3b2416" stroke-width="2.5"/><ellipse cx="-12" cy="-6" rx="11" ry="7" fill="#f2b8a8" stroke="#3b2416" stroke-width="3"/><ellipse cx="12" cy="-6" rx="11" ry="7" fill="#f2b8a8" stroke="#3b2416" stroke-width="3"/><ellipse cx="-26" cy="-22" rx="6" ry="4" fill="#f6d2a0" stroke="#3b2416" stroke-width="2.5"/><path d="M-10 -36q-14 4 -24 -2l-2 9q14 2 24 -4z" fill="#d8323c" stroke="#3b2416" stroke-width="2.5"/><ellipse cx="0" cy="-30" rx="27" ry="26" fill="url(#fur)" stroke="#3b2416" stroke-width="3.5"/><ellipse cx="6" cy="-24" rx="15" ry="16" fill="url(#belly)"/><ellipse cx="10" cy="-58" rx="25" ry="21" fill="url(#fur)" stroke="#3b2416" stroke-width="3.5"/><ellipse cx="26" cy="-50" rx="10" ry="8" fill="#f6d2a0" stroke="#3b2416" stroke-width="2"/><ellipse cx="-4" cy="-48" rx="9" ry="7" fill="#f7b0a0" opacity="0.55"/><ellipse cx="6" cy="-60" rx="4.5" ry="6" fill="#1a0e08"/><circle cx="7.5" cy="-62.5" r="1.8" fill="#fff"/><ellipse cx="24" cy="-60" rx="4.5" ry="6" fill="#1a0e08"/><circle cx="25.5" cy="-62.5" r="1.8" fill="#fff"/><path d="M18 -48q-4 4 -8 0" stroke="#3b2416" stroke-width="2.5" fill="none" stroke-linecap="round"/><ellipse cx="16" cy="-51" rx="3.2" ry="2.4" fill="#e0607a"/><path d="M8 -46q8 6 16 0" stroke="#3b2416" stroke-width="2.5" fill="none" stroke-linecap="round"/><path d="M30 -52l12 -3M30 -49l13 1M30 -46l11 4" stroke="#3b2416" stroke-width="1.4" stroke-linecap="round" opacity="0.7"/><path d="M-14 -66q22 -30 48 -4l-2 6q-22 -14 -44 2z" fill="#6b4a2e" stroke="#3b2416" stroke-width="3"/><ellipse cx="-12" cy="-76" rx="8" ry="10" fill="#e8a25c" stroke="#3b2416" stroke-width="3"/><ellipse cx="-12" cy="-76" rx="4" ry="6" fill="#f2a8a0"/><rect x="-4" y="-80" width="34" height="9" rx="4" fill="#4a3a2a" stroke="#3b2416" stroke-width="2.5"/><circle cx="4" cy="-76" r="7" fill="url(#glass)" stroke="#3b2416" stroke-width="2.5"/><circle cx="20" cy="-76" r="7" fill="url(#glass)" stroke="#3b2416" stroke-width="2.5"/><path d="M1 -79l3 -2" stroke="#fff" stroke-width="2" stroke-linecap="round"/><path d="M17 -79l3 -2" stroke="#fff" stroke-width="2" stroke-linecap="round"/><path d="M-12 -40q16 8 34 -2l2 7q-18 10 -38 2z" fill="#d8323c" stroke="#3b2416" stroke-width="2.5"/><line x1="14" y1="-36" x2="7.2" y2="-17.2" stroke="#3b2416" stroke-width="13" stroke-linecap="round"/><line x1="14" y1="-36" x2="7.2" y2="-17.2" stroke="#b8743c" stroke-width="8" stroke-linecap="round"/><circle cx="7.2" cy="-17.2" r="5.6" fill="#f2b8a8" stroke="#3b2416" stroke-width="2.5"/></g></g><g transform="translate(192 122)"><g transform="translate(0 2) rotate(0 0 -30)"><line x1="-16" y1="-38" x2="-7.2" y2="-20" stroke="#3b2416" stroke-width="13" stroke-linecap="round"/><line x1="-16" y1="-38" x2="-7.2" y2="-20" stroke="#b8743c" stroke-width="8" stroke-linecap="round"/><circle cx="-7.2" cy="-20" r="5.6" fill="#f2b8a8" stroke="#3b2416" stroke-width="2.5"/><ellipse cx="-12" cy="-6" rx="11" ry="7" fill="#f2b8a8" stroke="#3b2416" stroke-width="3"/><ellipse cx="12" cy="-6" rx="11" ry="7" fill="#f2b8a8" stroke="#3b2416" stroke-width="3"/><ellipse cx="-26" cy="-22" rx="6" ry="4" fill="#f6d2a0" stroke="#3b2416" stroke-width="2.5"/><path d="M-10 -36q-16 3 -27 2l-2 9q14 2 24 -4z" fill="#d8323c" stroke="#3b2416" stroke-width="2.5"/><ellipse cx="0" cy="-30" rx="27" ry="26" fill="url(#fur)" stroke="#3b2416" stroke-width="3.5"/><ellipse cx="6" cy="-24" rx="15" ry="16" fill="url(#belly)"/><ellipse cx="10" cy="-58" rx="25" ry="21" fill="url(#fur)" stroke="#3b2416" stroke-width="3.5"/><ellipse cx="26" cy="-50" rx="10" ry="8" fill="#f6d2a0" stroke="#3b2416" stroke-width="2"/><ellipse cx="-4" cy="-48" rx="9" ry="7" fill="#f7b0a0" opacity="0.55"/><ellipse cx="6" cy="-60" rx="4.5" ry="6" fill="#1a0e08"/><circle cx="7.5" cy="-62.5" r="1.8" fill="#fff"/><ellipse cx="24" cy="-60" rx="4.5" ry="6" fill="#1a0e08"/><circle cx="25.5" cy="-62.5" r="1.8" fill="#fff"/><path d="M18 -48q-4 4 -8 0" stroke="#3b2416" stroke-width="2.5" fill="none" stroke-linecap="round"/><ellipse cx="16" cy="-51" rx="3.2" ry="2.4" fill="#e0607a"/><path d="M8 -46q8 6 16 0" stroke="#3b2416" stroke-width="2.5" fill="none" stroke-linecap="round"/><path d="M30 -52l12 -3M30 -49l13 1M30 -46l11 4" stroke="#3b2416" stroke-width="1.4" stroke-linecap="round" opacity="0.7"/><path d="M-14 -66q22 -30 48 -4l-2 6q-22 -14 -44 2z" fill="#6b4a2e" stroke="#3b2416" stroke-width="3"/><ellipse cx="-12" cy="-76" rx="8" ry="10" fill="#e8a25c" stroke="#3b2416" stroke-width="3"/><ellipse cx="-12" cy="-76" rx="4" ry="6" fill="#f2a8a0"/><rect x="-4" y="-80" width="34" height="9" rx="4" fill="#4a3a2a" stroke="#3b2416" stroke-width="2.5"/><circle cx="4" cy="-76" r="7" fill="url(#glass)" stroke="#3b2416" stroke-width="2.5"/><circle cx="20" cy="-76" r="7" fill="url(#glass)" stroke="#3b2416" stroke-width="2.5"/><path d="M1 -79l3 -2" stroke="#fff" stroke-width="2" stroke-linecap="round"/><path d="M17 -79l3 -2" stroke="#fff" stroke-width="2" stroke-linecap="round"/><path d="M-12 -40q16 8 34 -2l2 7q-18 10 -38 2z" fill="#d8323c" stroke="#3b2416" stroke-width="2.5"/><line x1="14" y1="-36" x2="5.2" y2="-18" stroke="#3b2416" stroke-width="13" stroke-linecap="round"/><line x1="14" y1="-36" x2="5.2" y2="-18" stroke="#b8743c" stroke-width="8" stroke-linecap="round"/><circle cx="5.2" cy="-18" r="5.6" fill="#f2b8a8" stroke="#3b2416" stroke-width="2.5"/></g></g><g transform="translate(320 122)"><g transform="translate(0 -2) rotate(10 0 -30)"><line x1="-16" y1="-38" x2="-0.7" y2="-25.1" stroke="#3b2416" stroke-width="13" stroke-linecap="round"/><line x1="-16" y1="-38" x2="-0.7" y2="-25.1" stroke="#b8743c" stroke-width="8" stroke-linecap="round"/><circle cx="-0.7" cy="-25.1" r="5.6" fill="#f2b8a8" stroke="#3b2416" stroke-width="2.5"/><ellipse cx="-20" cy="-8" rx="11" ry="7" fill="#f2b8a8" stroke="#3b2416" stroke-width="3"/><ellipse cx="14" cy="-14" rx="11" ry="7" fill="#f2b8a8" stroke="#3b2416" stroke-width="3"/><ellipse cx="-26" cy="-22" rx="6" ry="4" fill="#f6d2a0" stroke="#3b2416" stroke-width="2.5"/><path d="M-10 -36q-18 2 -30 6l-2 9q14 2 24 -4z" fill="#d8323c" stroke="#3b2416" stroke-width="2.5"/><ellipse cx="0" cy="-30" rx="27" ry="26" fill="url(#fur)" stroke="#3b2416" stroke-width="3.5"/><ellipse cx="6" cy="-24" rx="15" ry="16" fill="url(#belly)"/><ellipse cx="10" cy="-58" rx="25" ry="21" fill="url(#fur)" stroke="#3b2416" stroke-width="3.5"/><ellipse cx="26" cy="-50" rx="10" ry="8" fill="#f6d2a0" stroke="#3b2416" stroke-width="2"/><ellipse cx="-4" cy="-48" rx="9" ry="7" fill="#f7b0a0" opacity="0.55"/><ellipse cx="6" cy="-60" rx="4.5" ry="6" fill="#1a0e08"/><circle cx="7.5" cy="-62.5" r="1.8" fill="#fff"/><ellipse cx="24" cy="-60" rx="4.5" ry="6" fill="#1a0e08"/><circle cx="25.5" cy="-62.5" r="1.8" fill="#fff"/><path d="M18 -48q-4 4 -8 0" stroke="#3b2416" stroke-width="2.5" fill="none" stroke-linecap="round"/><ellipse cx="16" cy="-51" rx="3.2" ry="2.4" fill="#e0607a"/><rect x="10" y="-47" width="12" height="6" rx="2" fill="#fff" stroke="#3b2416" stroke-width="2"/><line x1="16" y1="-47" x2="16" y2="-41" stroke="#3b2416" stroke-width="1.5"/><path d="M30 -52l12 -3M30 -49l13 1M30 -46l11 4" stroke="#3b2416" stroke-width="1.4" stroke-linecap="round" opacity="0.7"/><path d="M-14 -66q22 -30 48 -4l-2 6q-22 -14 -44 2z" fill="#6b4a2e" stroke="#3b2416" stroke-width="3"/><ellipse cx="-12" cy="-76" rx="8" ry="10" fill="#e8a25c" stroke="#3b2416" stroke-width="3"/><ellipse cx="-12" cy="-76" rx="4" ry="6" fill="#f2a8a0"/><rect x="-4" y="-80" width="34" height="9" rx="4" fill="#4a3a2a" stroke="#3b2416" stroke-width="2.5"/><circle cx="4" cy="-76" r="7" fill="url(#glass)" stroke="#3b2416" stroke-width="2.5"/><circle cx="20" cy="-76" r="7" fill="url(#glass)" stroke="#3b2416" stroke-width="2.5"/><path d="M1 -79l3 -2" stroke="#fff" stroke-width="2" stroke-linecap="round"/><path d="M17 -79l3 -2" stroke="#fff" stroke-width="2" stroke-linecap="round"/><path d="M-12 -40q16 8 34 -2l2 7q-18 10 -38 2z" fill="#d8323c" stroke="#3b2416" stroke-width="2.5"/><line x1="14" y1="-36" x2="1.1" y2="-20.7" stroke="#3b2416" stroke-width="13" stroke-linecap="round"/><line x1="14" y1="-36" x2="1.1" y2="-20.7" stroke="#b8743c" stroke-width="8" stroke-linecap="round"/><circle cx="1.1" cy="-20.7" r="5.6" fill="#f2b8a8" stroke="#3b2416" stroke-width="2.5"/></g></g><g transform="translate(448 122)"><g transform="translate(0 1) rotate(12 0 -30)"><line x1="-16" y1="-38" x2="-12.5" y2="-18.3" stroke="#3b2416" stroke-width="13" stroke-linecap="round"/><line x1="-16" y1="-38" x2="-12.5" y2="-18.3" stroke="#b8743c" stroke-width="8" stroke-linecap="round"/><circle cx="-12.5" cy="-18.3" r="5.6" fill="#f2b8a8" stroke="#3b2416" stroke-width="2.5"/><ellipse cx="-6" cy="-12" rx="11" ry="7" fill="#f2b8a8" stroke="#3b2416" stroke-width="3"/><ellipse cx="6" cy="-6" rx="11" ry="7" fill="#f2b8a8" stroke="#3b2416" stroke-width="3"/><ellipse cx="-26" cy="-22" rx="6" ry="4" fill="#f6d2a0" stroke="#3b2416" stroke-width="2.5"/><path d="M-10 -36q-20 1 -33 -2l-2 9q14 2 24 -4z" fill="#d8323c" stroke="#3b2416" stroke-width="2.5"/><ellipse cx="0" cy="-30" rx="27" ry="26" fill="url(#fur)" stroke="#3b2416" stroke-width="3.5"/><ellipse cx="6" cy="-24" rx="15" ry="16" fill="url(#belly)"/><ellipse cx="10" cy="-58" rx="25" ry="21" fill="url(#fur)" stroke="#3b2416" stroke-width="3.5"/><ellipse cx="26" cy="-50" rx="10" ry="8" fill="#f6d2a0" stroke="#3b2416" stroke-width="2"/><ellipse cx="-4" cy="-48" rx="9" ry="7" fill="#f7b0a0" opacity="0.55"/><ellipse cx="6" cy="-60" rx="4.5" ry="6" fill="#1a0e08"/><circle cx="7.5" cy="-62.5" r="1.8" fill="#fff"/><ellipse cx="24" cy="-60" rx="4.5" ry="6" fill="#1a0e08"/><circle cx="25.5" cy="-62.5" r="1.8" fill="#fff"/><path d="M18 -48q-4 4 -8 0" stroke="#3b2416" stroke-width="2.5" fill="none" stroke-linecap="round"/><ellipse cx="16" cy="-51" rx="3.2" ry="2.4" fill="#e0607a"/><rect x="10" y="-47" width="12" height="6" rx="2" fill="#fff" stroke="#3b2416" stroke-width="2"/><line x1="16" y1="-47" x2="16" y2="-41" stroke="#3b2416" stroke-width="1.5"/><path d="M30 -52l12 -3M30 -49l13 1M30 -46l11 4" stroke="#3b2416" stroke-width="1.4" stroke-linecap="round" opacity="0.7"/><path d="M-14 -66q22 -30 48 -4l-2 6q-22 -14 -44 2z" fill="#6b4a2e" stroke="#3b2416" stroke-width="3"/><ellipse cx="-12" cy="-76" rx="8" ry="10" fill="#e8a25c" stroke="#3b2416" stroke-width="3"/><ellipse cx="-12" cy="-76" rx="4" ry="6" fill="#f2a8a0"/><rect x="-4" y="-80" width="34" height="9" rx="4" fill="#4a3a2a" stroke="#3b2416" stroke-width="2.5"/><circle cx="4" cy="-76" r="7" fill="url(#glass)" stroke="#3b2416" stroke-width="2.5"/><circle cx="20" cy="-76" r="7" fill="url(#glass)" stroke="#3b2416" stroke-width="2.5"/><path d="M1 -79l3 -2" stroke="#fff" stroke-width="2" stroke-linecap="round"/><path d="M17 -79l3 -2" stroke="#fff" stroke-width="2" stroke-linecap="round"/><path d="M-12 -40q16 8 34 -2l2 7q-18 10 -38 2z" fill="#d8323c" stroke="#3b2416" stroke-width="2.5"/><line x1="14" y1="-36" x2="17.5" y2="-16.3" stroke="#3b2416" stroke-width="13" stroke-linecap="round"/><line x1="14" y1="-36" x2="17.5" y2="-16.3" stroke="#b8743c" stroke-width="8" stroke-linecap="round"/><circle cx="17.5" cy="-16.3" r="5.6" fill="#f2b8a8" stroke="#3b2416" stroke-width="2.5"/></g></g><g transform="translate(64 250)"><g transform="translate(0 -2) rotate(10 0 -30)"><line x1="-16" y1="-38" x2="-28.9" y2="-22.7" stroke="#3b2416" stroke-width="13" stroke-linecap="round"/><line x1="-16" y1="-38" x2="-28.9" y2="-22.7" stroke="#b8743c" stroke-width="8" stroke-linecap="round"/><circle cx="-28.9" cy="-22.7" r="5.6" fill="#f2b8a8" stroke="#3b2416" stroke-width="2.5"/><ellipse cx="14" cy="-8" rx="11" ry="7" fill="#f2b8a8" stroke="#3b2416" stroke-width="3"/><ellipse cx="-18" cy="-14" rx="11" ry="7" fill="#f2b8a8" stroke="#3b2416" stroke-width="3"/><ellipse cx="-26" cy="-22" rx="6" ry="4" fill="#f6d2a0" stroke="#3b2416" stroke-width="2.5"/><path d="M-10 -36q-18 2 -30 6l-2 9q14 2 24 -4z" fill="#d8323c" stroke="#3b2416" stroke-width="2.5"/><ellipse cx="0" cy="-30" rx="27" ry="26" fill="url(#fur)" stroke="#3b2416" stroke-width="3.5"/><ellipse cx="6" cy="-24" rx="15" ry="16" fill="url(#belly)"/><ellipse cx="10" cy="-58" rx="25" ry="21" fill="url(#fur)" stroke="#3b2416" stroke-width="3.5"/><ellipse cx="26" cy="-50" rx="10" ry="8" fill="#f6d2a0" stroke="#3b2416" stroke-width="2"/><ellipse cx="-4" cy="-48" rx="9" ry="7" fill="#f7b0a0" opacity="0.55"/><ellipse cx="6" cy="-60" rx="4.5" ry="6" fill="#1a0e08"/><circle cx="7.5" cy="-62.5" r="1.8" fill="#fff"/><ellipse cx="24" cy="-60" rx="4.5" ry="6" fill="#1a0e08"/><circle cx="25.5" cy="-62.5" r="1.8" fill="#fff"/><path d="M18 -48q-4 4 -8 0" stroke="#3b2416" stroke-width="2.5" fill="none" stroke-linecap="round"/><ellipse cx="16" cy="-51" rx="3.2" ry="2.4" fill="#e0607a"/><rect x="10" y="-47" width="12" height="6" rx="2" fill="#fff" stroke="#3b2416" stroke-width="2"/><line x1="16" y1="-47" x2="16" y2="-41" stroke="#3b2416" stroke-width="1.5"/><path d="M30 -52l12 -3M30 -49l13 1M30 -46l11 4" stroke="#3b2416" stroke-width="1.4" stroke-linecap="round" opacity="0.7"/><path d="M-14 -66q22 -30 48 -4l-2 6q-22 -14 -44 2z" fill="#6b4a2e" stroke="#3b2416" stroke-width="3"/><ellipse cx="-12" cy="-76" rx="8" ry="10" fill="#e8a25c" stroke="#3b2416" stroke-width="3"/><ellipse cx="-12" cy="-76" rx="4" ry="6" fill="#f2a8a0"/><rect x="-4" y="-80" width="34" height="9" rx="4" fill="#4a3a2a" stroke="#3b2416" stroke-width="2.5"/><circle cx="4" cy="-76" r="7" fill="url(#glass)" stroke="#3b2416" stroke-width="2.5"/><circle cx="20" cy="-76" r="7" fill="url(#glass)" stroke="#3b2416" stroke-width="2.5"/><path d="M1 -79l3 -2" stroke="#fff" stroke-width="2" stroke-linecap="round"/><path d="M17 -79l3 -2" stroke="#fff" stroke-width="2" stroke-linecap="round"/><path d="M-12 -40q16 8 34 -2l2 7q-18 10 -38 2z" fill="#d8323c" stroke="#3b2416" stroke-width="2.5"/><line x1="14" y1="-36" x2="29.3" y2="-23.1" stroke="#3b2416" stroke-width="13" stroke-linecap="round"/><line x1="14" y1="-36" x2="29.3" y2="-23.1" stroke="#b8743c" stroke-width="8" stroke-linecap="round"/><circle cx="29.3" cy="-23.1" r="5.6" fill="#f2b8a8" stroke="#3b2416" stroke-width="2.5"/></g></g><g transform="translate(192 250)"><g transform="translate(0 1) rotate(12 0 -30)"><line x1="-16" y1="-38" x2="-12.5" y2="-18.3" stroke="#3b2416" stroke-width="13" stroke-linecap="round"/><line x1="-16" y1="-38" x2="-12.5" y2="-18.3" stroke="#b8743c" stroke-width="8" stroke-linecap="round"/><circle cx="-12.5" cy="-18.3" r="5.6" fill="#f2b8a8" stroke="#3b2416" stroke-width="2.5"/><ellipse cx="6" cy="-6" rx="11" ry="7" fill="#f2b8a8" stroke="#3b2416" stroke-width="3"/><ellipse cx="-6" cy="-12" rx="11" ry="7" fill="#f2b8a8" stroke="#3b2416" stroke-width="3"/><ellipse cx="-26" cy="-22" rx="6" ry="4" fill="#f6d2a0" stroke="#3b2416" stroke-width="2.5"/><path d="M-10 -36q-20 1 -33 -2l-2 9q14 2 24 -4z" fill="#d8323c" stroke="#3b2416" stroke-width="2.5"/><ellipse cx="0" cy="-30" rx="27" ry="26" fill="url(#fur)" stroke="#3b2416" stroke-width="3.5"/><ellipse cx="6" cy="-24" rx="15" ry="16" fill="url(#belly)"/><ellipse cx="10" cy="-58" rx="25" ry="21" fill="url(#fur)" stroke="#3b2416" stroke-width="3.5"/><ellipse cx="26" cy="-50" rx="10" ry="8" fill="#f6d2a0" stroke="#3b2416" stroke-width="2"/><ellipse cx="-4" cy="-48" rx="9" ry="7" fill="#f7b0a0" opacity="0.55"/><ellipse cx="6" cy="-60" rx="4.5" ry="6" fill="#1a0e08"/><circle cx="7.5" cy="-62.5" r="1.8" fill="#fff"/><ellipse cx="24" cy="-60" rx="4.5" ry="6" fill="#1a0e08"/><circle cx="25.5" cy="-62.5" r="1.8" fill="#fff"/><path d="M18 -48q-4 4 -8 0" stroke="#3b2416" stroke-width="2.5" fill="none" stroke-linecap="round"/><ellipse cx="16" cy="-51" rx="3.2" ry="2.4" fill="#e0607a"/><rect x="10" y="-47" width="12" height="6" rx="2" fill="#fff" stroke="#3b2416" stroke-width="2"/><line x1="16" y1="-47" x2="16" y2="-41" stroke="#3b2416" stroke-width="1.5"/><path d="M30 -52l12 -3M30 -49l13 1M30 -46l11 4" stroke="#3b2416" stroke-width="1.4" stroke-linecap="round" opacity="0.7"/><path d="M-14 -66q22 -30 48 -4l-2 6q-22 -14 -44 2z" fill="#6b4a2e" stroke="#3b2416" stroke-width="3"/><ellipse cx="-12" cy="-76" rx="8" ry="10" fill="#e8a25c" stroke="#3b2416" stroke-width="3"/><ellipse cx="-12" cy="-76" rx="4" ry="6" fill="#f2a8a0"/><rect x="-4" y="-80" width="34" height="9" rx="4" fill="#4a3a2a" stroke="#3b2416" stroke-width="2.5"/><circle cx="4" cy="-76" r="7" fill="url(#glass)" stroke="#3b2416" stroke-width="2.5"/><circle cx="20" cy="-76" r="7" fill="url(#glass)" stroke="#3b2416" stroke-width="2.5"/><path d="M1 -79l3 -2" stroke="#fff" stroke-width="2" stroke-linecap="round"/><path d="M17 -79l3 -2" stroke="#fff" stroke-width="2" stroke-linecap="round"/><path d="M-12 -40q16 8 34 -2l2 7q-18 10 -38 2z" fill="#d8323c" stroke="#3b2416" stroke-width="2.5"/><line x1="14" y1="-36" x2="17.5" y2="-16.3" stroke="#3b2416" stroke-width="13" stroke-linecap="round"/><line x1="14" y1="-36" x2="17.5" y2="-16.3" stroke="#b8743c" stroke-width="8" stroke-linecap="round"/><circle cx="17.5" cy="-16.3" r="5.6" fill="#f2b8a8" stroke="#3b2416" stroke-width="2.5"/></g></g><g transform="translate(320 250)"><g transform="translate(0 -6) rotate(-6 0 -30)"><line x1="-16" y1="-38" x2="-28.9" y2="-53.3" stroke="#3b2416" stroke-width="13" stroke-linecap="round"/><line x1="-16" y1="-38" x2="-28.9" y2="-53.3" stroke="#b8743c" stroke-width="8" stroke-linecap="round"/><circle cx="-28.9" cy="-53.3" r="5.6" fill="#f2b8a8" stroke="#3b2416" stroke-width="2.5"/><ellipse cx="-14" cy="-20" rx="11" ry="7" fill="#f2b8a8" stroke="#3b2416" stroke-width="3"/><ellipse cx="12" cy="-16" rx="11" ry="7" fill="#f2b8a8" stroke="#3b2416" stroke-width="3"/><ellipse cx="-26" cy="-22" rx="6" ry="4" fill="#f6d2a0" stroke="#3b2416" stroke-width="2.5"/><path d="M-10 -36q-22 0 -36 2l-2 9q14 2 24 -4z" fill="#d8323c" stroke="#3b2416" stroke-width="2.5"/><ellipse cx="0" cy="-30" rx="27" ry="26" fill="url(#fur)" stroke="#3b2416" stroke-width="3.5"/><ellipse cx="6" cy="-24" rx="15" ry="16" fill="url(#belly)"/><ellipse cx="10" cy="-58" rx="25" ry="21" fill="url(#fur)" stroke="#3b2416" stroke-width="3.5"/><ellipse cx="26" cy="-50" rx="10" ry="8" fill="#f6d2a0" stroke="#3b2416" stroke-width="2"/><ellipse cx="-4" cy="-48" rx="9" ry="7" fill="#f7b0a0" opacity="0.55"/><ellipse cx="6" cy="-60" rx="4.5" ry="6" fill="#1a0e08"/><circle cx="7.5" cy="-62.5" r="1.8" fill="#fff"/><ellipse cx="24" cy="-60" rx="4.5" ry="6" fill="#1a0e08"/><circle cx="25.5" cy="-62.5" r="1.8" fill="#fff"/><path d="M18 -48q-4 4 -8 0" stroke="#3b2416" stroke-width="2.5" fill="none" stroke-linecap="round"/><ellipse cx="16" cy="-51" rx="3.2" ry="2.4" fill="#e0607a"/><path d="M8 -46q8 10 16 0z" fill="#7a1f2e" stroke="#3b2416" stroke-width="2.5"/><rect x="12.5" y="-46" width="7" height="5" rx="1.5" fill="#fff" stroke="#3b2416" stroke-width="1.2"/><path d="M30 -52l12 -3M30 -49l13 1M30 -46l11 4" stroke="#3b2416" stroke-width="1.4" stroke-linecap="round" opacity="0.7"/><path d="M-14 -66q22 -30 48 -4l-2 6q-22 -14 -44 2z" fill="#6b4a2e" stroke="#3b2416" stroke-width="3"/><ellipse cx="-12" cy="-76" rx="8" ry="10" fill="#e8a25c" stroke="#3b2416" stroke-width="3"/><ellipse cx="-12" cy="-76" rx="4" ry="6" fill="#f2a8a0"/><rect x="-4" y="-80" width="34" height="9" rx="4" fill="#4a3a2a" stroke="#3b2416" stroke-width="2.5"/><circle cx="4" cy="-76" r="7" fill="url(#glass)" stroke="#3b2416" stroke-width="2.5"/><circle cx="20" cy="-76" r="7" fill="url(#glass)" stroke="#3b2416" stroke-width="2.5"/><path d="M1 -79l3 -2" stroke="#fff" stroke-width="2" stroke-linecap="round"/><path d="M17 -79l3 -2" stroke="#fff" stroke-width="2" stroke-linecap="round"/><path d="M-12 -40q16 8 34 -2l2 7q-18 10 -38 2z" fill="#d8323c" stroke="#3b2416" stroke-width="2.5"/><line x1="14" y1="-36" x2="24" y2="-53.3" stroke="#3b2416" stroke-width="13" stroke-linecap="round"/><line x1="14" y1="-36" x2="24" y2="-53.3" stroke="#b8743c" stroke-width="8" stroke-linecap="round"/><circle cx="24" cy="-53.3" r="5.6" fill="#f2b8a8" stroke="#3b2416" stroke-width="2.5"/></g></g><g transform="translate(448 250)"><g transform="translate(0 -4) rotate(4 0 -30)"><line x1="-16" y1="-38" x2="-34.8" y2="-31.2" stroke="#3b2416" stroke-width="13" stroke-linecap="round"/><line x1="-16" y1="-38" x2="-34.8" y2="-31.2" stroke="#b8743c" stroke-width="8" stroke-linecap="round"/><circle cx="-34.8" cy="-31.2" r="5.6" fill="#f2b8a8" stroke="#3b2416" stroke-width="2.5"/><ellipse cx="-10" cy="-12" rx="11" ry="7" fill="#f2b8a8" stroke="#3b2416" stroke-width="3"/><ellipse cx="14" cy="-8" rx="11" ry="7" fill="#f2b8a8" stroke="#3b2416" stroke-width="3"/><ellipse cx="-26" cy="-22" rx="6" ry="4" fill="#f6d2a0" stroke="#3b2416" stroke-width="2.5"/><path d="M-10 -36q-24 -1 -39 6l-2 9q14 2 24 -4z" fill="#d8323c" stroke="#3b2416" stroke-width="2.5"/><ellipse cx="0" cy="-30" rx="27" ry="26" fill="url(#fur)" stroke="#3b2416" stroke-width="3.5"/><ellipse cx="6" cy="-24" rx="15" ry="16" fill="url(#belly)"/><ellipse cx="10" cy="-58" rx="25" ry="21" fill="url(#fur)" stroke="#3b2416" stroke-width="3.5"/><ellipse cx="26" cy="-50" rx="10" ry="8" fill="#f6d2a0" stroke="#3b2416" stroke-width="2"/><ellipse cx="-4" cy="-48" rx="9" ry="7" fill="#f7b0a0" opacity="0.55"/><ellipse cx="6" cy="-60" rx="5.625" ry="7.5" fill="#1a0e08"/><circle cx="7.5" cy="-62.5" r="2.25" fill="#fff"/><ellipse cx="24" cy="-60" rx="5.625" ry="7.5" fill="#1a0e08"/><circle cx="25.5" cy="-62.5" r="2.25" fill="#fff"/><path d="M18 -48q-4 4 -8 0" stroke="#3b2416" stroke-width="2.5" fill="none" stroke-linecap="round"/><ellipse cx="16" cy="-51" rx="3.2" ry="2.4" fill="#e0607a"/><path d="M8 -46q8 10 16 0z" fill="#7a1f2e" stroke="#3b2416" stroke-width="2.5"/><rect x="12.5" y="-46" width="7" height="5" rx="1.5" fill="#fff" stroke="#3b2416" stroke-width="1.2"/><path d="M30 -52l12 -3M30 -49l13 1M30 -46l11 4" stroke="#3b2416" stroke-width="1.4" stroke-linecap="round" opacity="0.7"/><path d="M-14 -66q22 -30 48 -4l-2 6q-22 -14 -44 2z" fill="#6b4a2e" stroke="#3b2416" stroke-width="3"/><ellipse cx="-12" cy="-76" rx="8" ry="10" fill="#e8a25c" stroke="#3b2416" stroke-width="3"/><ellipse cx="-12" cy="-76" rx="4" ry="6" fill="#f2a8a0"/><rect x="-4" y="-80" width="34" height="9" rx="4" fill="#4a3a2a" stroke="#3b2416" stroke-width="2.5"/><circle cx="4" cy="-76" r="7" fill="url(#glass)" stroke="#3b2416" stroke-width="2.5"/><circle cx="20" cy="-76" r="7" fill="url(#glass)" stroke="#3b2416" stroke-width="2.5"/><path d="M1 -79l3 -2" stroke="#fff" stroke-width="2" stroke-linecap="round"/><path d="M17 -79l3 -2" stroke="#fff" stroke-width="2" stroke-linecap="round"/><path d="M-12 -40q16 8 34 -2l2 7q-18 10 -38 2z" fill="#d8323c" stroke="#3b2416" stroke-width="2.5"/><line x1="14" y1="-36" x2="32.8" y2="-29.2" stroke="#3b2416" stroke-width="13" stroke-linecap="round"/><line x1="14" y1="-36" x2="32.8" y2="-29.2" stroke="#b8743c" stroke-width="8" stroke-linecap="round"/><circle cx="32.8" cy="-29.2" r="5.6" fill="#f2b8a8" stroke="#3b2416" stroke-width="2.5"/></g></g><g transform="translate(64 378)"><g transform="translate(0 0) rotate(-18 0 -30)"><line x1="-16" y1="-38" x2="-34.8" y2="-44.8" stroke="#3b2416" stroke-width="13" stroke-linecap="round"/><line x1="-16" y1="-38" x2="-34.8" y2="-44.8" stroke="#b8743c" stroke-width="8" stroke-linecap="round"/><circle cx="-34.8" cy="-44.8" r="5.6" fill="#f2b8a8" stroke="#3b2416" stroke-width="2.5"/><ellipse cx="-10" cy="-12" rx="11" ry="7" fill="#f2b8a8" stroke="#3b2416" stroke-width="3"/><ellipse cx="14" cy="-8" rx="11" ry="7" fill="#f2b8a8" stroke="#3b2416" stroke-width="3"/><ellipse cx="-26" cy="-22" rx="6" ry="4" fill="#f6d2a0" stroke="#3b2416" stroke-width="2.5"/><path d="M-10 -36q-24 -1 -39 6l-2 9q14 2 24 -4z" fill="#d8323c" stroke="#3b2416" stroke-width="2.5"/><ellipse cx="0" cy="-30" rx="27" ry="26" fill="url(#fur)" stroke="#3b2416" stroke-width="3.5"/><ellipse cx="6" cy="-24" rx="15" ry="16" fill="url(#belly)"/><ellipse cx="10" cy="-58" rx="25" ry="21" fill="url(#fur)" stroke="#3b2416" stroke-width="3.5"/><ellipse cx="26" cy="-50" rx="10" ry="8" fill="#f6d2a0" stroke="#3b2416" stroke-width="2"/><ellipse cx="-4" cy="-48" rx="9" ry="7" fill="#f7b0a0" opacity="0.55"/><path d="M2 -64l8 8M10 -64l-8 8" stroke="#3b2416" stroke-width="3" stroke-linecap="round"/><path d="M20 -64l8 8M28 -64l-8 8" stroke="#3b2416" stroke-width="3" stroke-linecap="round"/><path d="M18 -48q-4 4 -8 0" stroke="#3b2416" stroke-width="2.5" fill="none" stroke-linecap="round"/><ellipse cx="16" cy="-51" rx="3.2" ry="2.4" fill="#e0607a"/><path d="M8 -46q8 10 16 0z" fill="#7a1f2e" stroke="#3b2416" stroke-width="2.5"/><rect x="12.5" y="-46" width="7" height="5" rx="1.5" fill="#fff" stroke="#3b2416" stroke-width="1.2"/><path d="M30 -52l12 -3M30 -49l13 1M30 -46l11 4" stroke="#3b2416" stroke-width="1.4" stroke-linecap="round" opacity="0.7"/><path d="M-14 -66q22 -30 48 -4l-2 6q-22 -14 -44 2z" fill="#6b4a2e" stroke="#3b2416" stroke-width="3"/><ellipse cx="-12" cy="-76" rx="8" ry="10" fill="#e8a25c" stroke="#3b2416" stroke-width="3"/><ellipse cx="-12" cy="-76" rx="4" ry="6" fill="#f2a8a0"/><rect x="-4" y="-80" width="34" height="9" rx="4" fill="#4a3a2a" stroke="#3b2416" stroke-width="2.5"/><circle cx="4" cy="-76" r="7" fill="url(#glass)" stroke="#3b2416" stroke-width="2.5"/><circle cx="20" cy="-76" r="7" fill="url(#glass)" stroke="#3b2416" stroke-width="2.5"/><path d="M1 -79l3 -2" stroke="#fff" stroke-width="2" stroke-linecap="round"/><path d="M17 -79l3 -2" stroke="#fff" stroke-width="2" stroke-linecap="round"/><path d="M-12 -40q16 8 34 -2l2 7q-18 10 -38 2z" fill="#d8323c" stroke="#3b2416" stroke-width="2.5"/><line x1="14" y1="-36" x2="31.3" y2="-46" stroke="#3b2416" stroke-width="13" stroke-linecap="round"/><line x1="14" y1="-36" x2="31.3" y2="-46" stroke="#b8743c" stroke-width="8" stroke-linecap="round"/><circle cx="31.3" cy="-46" r="5.6" fill="#f2b8a8" stroke="#3b2416" stroke-width="2.5"/></g></g><g transform="translate(192 378)"><g transform="translate(0 2) rotate(-8 0 -30)"><line x1="-16" y1="-38" x2="-3.1" y2="-22.7" stroke="#3b2416" stroke-width="13" stroke-linecap="round"/><line x1="-16" y1="-38" x2="-3.1" y2="-22.7" stroke="#b8743c" stroke-width="8" stroke-linecap="round"/><circle cx="-3.1" cy="-22.7" r="5.6" fill="#f2b8a8" stroke="#3b2416" stroke-width="2.5"/><ellipse cx="-12" cy="-6" rx="11" ry="7" fill="#f2b8a8" stroke="#3b2416" stroke-width="3"/><ellipse cx="12" cy="-6" rx="11" ry="7" fill="#f2b8a8" stroke="#3b2416" stroke-width="3"/><ellipse cx="-26" cy="-22" rx="6" ry="4" fill="#f6d2a0" stroke="#3b2416" stroke-width="2.5"/><path d="M-10 -36q-16 3 -27 2l-2 9q14 2 24 -4z" fill="#d8323c" stroke="#3b2416" stroke-width="2.5"/><ellipse cx="0" cy="-30" rx="27" ry="26" fill="url(#fur)" stroke="#3b2416" stroke-width="3.5"/><ellipse cx="6" cy="-24" rx="15" ry="16" fill="url(#belly)"/><ellipse cx="10" cy="-58" rx="25" ry="21" fill="url(#fur)" stroke="#3b2416" stroke-width="3.5"/><ellipse cx="26" cy="-50" rx="10" ry="8" fill="#f6d2a0" stroke="#3b2416" stroke-width="2"/><ellipse cx="-4" cy="-48" rx="9" ry="7" fill="#f7b0a0" opacity="0.55"/><path d="M1 -60q5 -4 10 0" stroke="#3b2416" stroke-width="3.5" fill="none" stroke-linecap="round"/><path d="M19 -60q5 -4 10 0" stroke="#3b2416" stroke-width="3.5" fill="none" stroke-linecap="round"/><path d="M18 -48q-4 4 -8 0" stroke="#3b2416" stroke-width="2.5" fill="none" stroke-linecap="round"/><ellipse cx="16" cy="-51" rx="3.2" ry="2.4" fill="#e0607a"/><rect x="10" y="-47" width="12" height="6" rx="2" fill="#fff" stroke="#3b2416" stroke-width="2"/><line x1="16" y1="-47" x2="16" y2="-41" stroke="#3b2416" stroke-width="1.5"/><path d="M30 -52l12 -3M30 -49l13 1M30 -46l11 4" stroke="#3b2416" stroke-width="1.4" stroke-linecap="round" opacity="0.7"/><path d="M-14 -66q22 -30 48 -4l-2 6q-22 -14 -44 2z" fill="#6b4a2e" stroke="#3b2416" stroke-width="3"/><ellipse cx="-12" cy="-76" rx="8" ry="10" fill="#e8a25c" stroke="#3b2416" stroke-width="3"/><ellipse cx="-12" cy="-76" rx="4" ry="6" fill="#f2a8a0"/><rect x="-4" y="-80" width="34" height="9" rx="4" fill="#4a3a2a" stroke="#3b2416" stroke-width="2.5"/><circle cx="4" cy="-76" r="7" fill="url(#glass)" stroke="#3b2416" stroke-width="2.5"/><circle cx="20" cy="-76" r="7" fill="url(#glass)" stroke="#3b2416" stroke-width="2.5"/><path d="M1 -79l3 -2" stroke="#fff" stroke-width="2" stroke-linecap="round"/><path d="M17 -79l3 -2" stroke="#fff" stroke-width="2" stroke-linecap="round"/><path d="M-12 -40q16 8 34 -2l2 7q-18 10 -38 2z" fill="#d8323c" stroke="#3b2416" stroke-width="2.5"/><line x1="14" y1="-36" x2="-4.8" y2="-42.8" stroke="#3b2416" stroke-width="13" stroke-linecap="round"/><line x1="14" y1="-36" x2="-4.8" y2="-42.8" stroke="#b8743c" stroke-width="8" stroke-linecap="round"/><circle cx="-4.8" cy="-42.8" r="5.6" fill="#f2b8a8" stroke="#3b2416" stroke-width="2.5"/></g></g><g transform="translate(320 378)"><g transform="translate(0 0) rotate(16 0 -30)"><line x1="-16" y1="-38" x2="-26" y2="-20.7" stroke="#3b2416" stroke-width="13" stroke-linecap="round"/><line x1="-16" y1="-38" x2="-26" y2="-20.7" stroke="#b8743c" stroke-width="8" stroke-linecap="round"/><circle cx="-26" cy="-20.7" r="5.6" fill="#f2b8a8" stroke="#3b2416" stroke-width="2.5"/><ellipse cx="-20" cy="-8" rx="11" ry="7" fill="#f2b8a8" stroke="#3b2416" stroke-width="3"/><ellipse cx="14" cy="-14" rx="11" ry="7" fill="#f2b8a8" stroke="#3b2416" stroke-width="3"/><ellipse cx="-26" cy="-22" rx="6" ry="4" fill="#f6d2a0" stroke="#3b2416" stroke-width="2.5"/><path d="M-10 -36q-20 1 -33 -2l-2 9q14 2 24 -4z" fill="#d8323c" stroke="#3b2416" stroke-width="2.5"/><ellipse cx="0" cy="-30" rx="27" ry="26" fill="url(#fur)" stroke="#3b2416" stroke-width="3.5"/><ellipse cx="6" cy="-24" rx="15" ry="16" fill="url(#belly)"/><ellipse cx="10" cy="-58" rx="25" ry="21" fill="url(#fur)" stroke="#3b2416" stroke-width="3.5"/><ellipse cx="26" cy="-50" rx="10" ry="8" fill="#f6d2a0" stroke="#3b2416" stroke-width="2"/><ellipse cx="-4" cy="-48" rx="9" ry="7" fill="#f7b0a0" opacity="0.55"/><path d="M1 -60q5 -4 10 0" stroke="#3b2416" stroke-width="3.5" fill="none" stroke-linecap="round"/><path d="M19 -60q5 -4 10 0" stroke="#3b2416" stroke-width="3.5" fill="none" stroke-linecap="round"/><path d="M18 -48q-4 4 -8 0" stroke="#3b2416" stroke-width="2.5" fill="none" stroke-linecap="round"/><ellipse cx="16" cy="-51" rx="3.2" ry="2.4" fill="#e0607a"/><path d="M8 -46q8 14 16 0z" fill="#7a1f2e" stroke="#3b2416" stroke-width="2.5"/><rect x="12.5" y="-46" width="7" height="7" rx="1.5" fill="#fff" stroke="#3b2416" stroke-width="1.2"/><path d="M30 -52l12 -3M30 -49l13 1M30 -46l11 4" stroke="#3b2416" stroke-width="1.4" stroke-linecap="round" opacity="0.7"/><path d="M-14 -66q22 -30 48 -4l-2 6q-22 -14 -44 2z" fill="#6b4a2e" stroke="#3b2416" stroke-width="3"/><ellipse cx="-12" cy="-76" rx="8" ry="10" fill="#e8a25c" stroke="#3b2416" stroke-width="3"/><ellipse cx="-12" cy="-76" rx="4" ry="6" fill="#f2a8a0"/><rect x="-4" y="-80" width="34" height="9" rx="4" fill="#4a3a2a" stroke="#3b2416" stroke-width="2.5"/><circle cx="4" cy="-76" r="7" fill="url(#glass)" stroke="#3b2416" stroke-width="2.5"/><circle cx="20" cy="-76" r="7" fill="url(#glass)" stroke="#3b2416" stroke-width="2.5"/><path d="M1 -79l3 -2" stroke="#fff" stroke-width="2" stroke-linecap="round"/><path d="M17 -79l3 -2" stroke="#fff" stroke-width="2" stroke-linecap="round"/><path d="M-12 -40q16 8 34 -2l2 7q-18 10 -38 2z" fill="#d8323c" stroke="#3b2416" stroke-width="2.5"/><line x1="14" y1="-36" x2="33.9" y2="-37.7" stroke="#3b2416" stroke-width="13" stroke-linecap="round"/><line x1="14" y1="-36" x2="33.9" y2="-37.7" stroke="#b8743c" stroke-width="8" stroke-linecap="round"/><circle cx="33.9" cy="-37.7" r="5.6" fill="#f2b8a8" stroke="#3b2416" stroke-width="2.5"/></g></g><g transform="translate(448 378)"><g transform="translate(0 -3) rotate(0 0 -30)"><line x1="-16" y1="-38" x2="-26" y2="-55.3" stroke="#3b2416" stroke-width="13" stroke-linecap="round"/><line x1="-16" y1="-38" x2="-26" y2="-55.3" stroke="#b8743c" stroke-width="8" stroke-linecap="round"/><circle cx="-26" cy="-55.3" r="5.6" fill="#f2b8a8" stroke="#3b2416" stroke-width="2.5"/><ellipse cx="-12" cy="-6" rx="11" ry="7" fill="#f2b8a8" stroke="#3b2416" stroke-width="3"/><ellipse cx="12" cy="-6" rx="11" ry="7" fill="#f2b8a8" stroke="#3b2416" stroke-width="3"/><ellipse cx="-26" cy="-22" rx="6" ry="4" fill="#f6d2a0" stroke="#3b2416" stroke-width="2.5"/><path d="M-10 -36q-22 0 -36 2l-2 9q14 2 24 -4z" fill="#d8323c" stroke="#3b2416" stroke-width="2.5"/><ellipse cx="0" cy="-30" rx="27" ry="26" fill="url(#fur)" stroke="#3b2416" stroke-width="3.5"/><ellipse cx="6" cy="-24" rx="15" ry="16" fill="url(#belly)"/><ellipse cx="10" cy="-58" rx="25" ry="21" fill="url(#fur)" stroke="#3b2416" stroke-width="3.5"/><ellipse cx="26" cy="-50" rx="10" ry="8" fill="#f6d2a0" stroke="#3b2416" stroke-width="2"/><ellipse cx="-4" cy="-48" rx="9" ry="7" fill="#f7b0a0" opacity="0.55"/><path d="M1 -59q5 -7 10 0" stroke="#3b2416" stroke-width="3.5" fill="none" stroke-linecap="round"/><path d="M19 -59q5 -7 10 0" stroke="#3b2416" stroke-width="3.5" fill="none" stroke-linecap="round"/><path d="M18 -48q-4 4 -8 0" stroke="#3b2416" stroke-width="2.5" fill="none" stroke-linecap="round"/><ellipse cx="16" cy="-51" rx="3.2" ry="2.4" fill="#e0607a"/><path d="M8 -46q8 10 16 0z" fill="#7a1f2e" stroke="#3b2416" stroke-width="2.5"/><rect x="12.5" y="-46" width="7" height="5" rx="1.5" fill="#fff" stroke="#3b2416" stroke-width="1.2"/><path d="M30 -52l12 -3M30 -49l13 1M30 -46l11 4" stroke="#3b2416" stroke-width="1.4" stroke-linecap="round" opacity="0.7"/><path d="M-14 -66q22 -30 48 -4l-2 6q-22 -14 -44 2z" fill="#6b4a2e" stroke="#3b2416" stroke-width="3"/><ellipse cx="-12" cy="-76" rx="8" ry="10" fill="#e8a25c" stroke="#3b2416" stroke-width="3"/><ellipse cx="-12" cy="-76" rx="4" ry="6" fill="#f2a8a0"/><rect x="-4" y="-80" width="34" height="9" rx="4" fill="#4a3a2a" stroke="#3b2416" stroke-width="2.5"/><circle cx="4" cy="-76" r="7" fill="url(#glass)" stroke="#3b2416" stroke-width="2.5"/><circle cx="20" cy="-76" r="7" fill="url(#glass)" stroke="#3b2416" stroke-width="2.5"/><path d="M1 -79l3 -2" stroke="#fff" stroke-width="2" stroke-linecap="round"/><path d="M17 -79l3 -2" stroke="#fff" stroke-width="2" stroke-linecap="round"/><path d="M-12 -40q16 8 34 -2l2 7q-18 10 -38 2z" fill="#d8323c" stroke="#3b2416" stroke-width="2.5"/><line x1="14" y1="-36" x2="20.8" y2="-54.8" stroke="#3b2416" stroke-width="13" stroke-linecap="round"/><line x1="14" y1="-36" x2="20.8" y2="-54.8" stroke="#b8743c" stroke-width="8" stroke-linecap="round"/><circle cx="20.8" cy="-54.8" r="5.6" fill="#f2b8a8" stroke="#3b2416" stroke-width="2.5"/></g></g></svg>
