<svg xmlns="http://www.w3.org/2000/svg" width="192" height="256" viewBox="0 0 192 256">
<defs>
<linearGradient id="bg" x1="0" y1="0" x2="0.3" y2="1"><stop offset="0" stop-color="#5a3f2a"/><stop offset="0.6" stop-color="#2e2016"/><stop offset="1" stop-color="#1e140e"/></linearGradient>
<radialGradient id="light" cx="0.3" cy="0.25" r="0.7"><stop offset="0" stop-color="#ffe2a8" stop-opacity="0.45"/><stop offset="1" stop-color="#ffe2a8" stop-opacity="0"/></radialGradient>
<linearGradient id="cloth" x1="0" y1="0" x2="1" y2="1"><stop offset="0" stop-color="#e8e2d0"/><stop offset="0.5" stop-color="#c8c0aa"/><stop offset="1" stop-color="#8a8270"/></linearGradient>
<linearGradient id="table" x1="0" y1="0" x2="0" y2="1"><stop offset="0" stop-color="#7a4a2a"/><stop offset="1" stop-color="#3a1e10"/></linearGradient>
<radialGradient id="bowl" cx="0.35" cy="0.3" r="0.8"><stop offset="0" stop-color="#8fc0ff"/><stop offset="0.5" stop-color="#2f5fae"/><stop offset="1" stop-color="#14264a"/></radialGradient>
<radialGradient id="apple" cx="0.35" cy="0.3" r="0.75"><stop offset="0" stop-color="#ffb0a0"/><stop offset="0.35" stop-color="#e0302a"/><stop offset="1" stop-color="#6a0e0e"/></radialGradient>
<radialGradient id="pear" cx="0.35" cy="0.3" r="0.8"><stop offset="0" stop-color="#f0ffb0"/><stop offset="0.45" stop-color="#9cc23a"/><stop offset="1" stop-color="#40581a"/></radialGradient>
<radialGradient id="lemon" cx="0.35" cy="0.3" r="0.8"><stop offset="0" stop-color="#fffbd0"/><stop offset="0.45" stop-color="#ffd23a"/><stop offset="1" stop-color="#9a6a0a"/></radialGradient>
<radialGradient id="grape" cx="0.35" cy="0.3" r="0.8"><stop offset="0" stop-color="#b48ae0"/><stop offset="0.5" stop-color="#5a2a8a"/><stop offset="1" stop-color="#22103a"/></radialGradient>
<pattern id="weave" width="4" height="4" patternUnits="userSpaceOnUse"><path d="M0 1h4M1 0v4" stroke="#ffffff" stroke-width="0.6" opacity="0.045"/><path d="M0 3h4M3 0v4" stroke="#000000" stroke-width="0.6" opacity="0.045"/></pattern>
</defs>
<rect width="192" height="256" fill="url(#bg)"/>
<path d="M48.5 14.0l20.0 -10.7" stroke="#3a2a1e" stroke-width="4.5" stroke-linecap="round" opacity="0.55"/><path d="M4.9 71.0l12.4 -2.0" stroke="#4a3424" stroke-width="7.0" stroke-linecap="round" opacity="0.55"/><path d="M163.8 79.3l23.8 -4.1" stroke="#2e2218" stroke-width="5.4" stroke-linecap="round" opacity="0.55"/><path d="M17.4 22.3l30.6 -4.2" stroke="#55402c" stroke-width="6.6" stroke-linecap="round" opacity="0.55"/><path d="M105.7 28.7l19.7 -10.0" stroke="#3a2a1e" stroke-width="6.8" stroke-linecap="round" opacity="0.55"/><path d="M157.7 24.6l26.4 -10.1" stroke="#4a3424" stroke-width="3.2" stroke-linecap="round" opacity="0.55"/><path d="M4.3 85.3l27.8 -5.0" stroke="#2e2218" stroke-width="5.7" stroke-linecap="round" opacity="0.55"/><path d="M73.1 93.0l24.6 -6.1" stroke="#55402c" stroke-width="5.9" stroke-linecap="round" opacity="0.55"/><path d="M190.1 71.4l10.6 -5.9" stroke="#3a2a1e" stroke-width="4.8" stroke-linecap="round" opacity="0.55"/><path d="M24.4 122.0l22.6 -4.5" stroke="#4a3424" stroke-width="4.6" stroke-linecap="round" opacity="0.55"/><path d="M41.4 43.2l9.3 -4.6" stroke="#2e2218" stroke-width="4.3" stroke-linecap="round" opacity="0.55"/><path d="M169.5 151.7l14.0 -2.3" stroke="#55402c" stroke-width="5.3" stroke-linecap="round" opacity="0.55"/><path d="M64.6 49.9l12.8 -1.4" stroke="#3a2a1e" stroke-width="3.4" stroke-linecap="round" opacity="0.55"/><path d="M176.9 127.9l18.9 -4.7" stroke="#4a3424" stroke-width="4.2" stroke-linecap="round" opacity="0.55"/><path d="M22.8 80.8l11.2 -5.8" stroke="#2e2218" stroke-width="5.4" stroke-linecap="round" opacity="0.55"/><path d="M134.0 77.9l12.9 -6.8" stroke="#55402c" stroke-width="5.8" stroke-linecap="round" opacity="0.55"/><path d="M169.3 129.7l24.9 -4.5" stroke="#3a2a1e" stroke-width="4.6" stroke-linecap="round" opacity="0.55"/><path d="M29.4 20.0l21.1 -5.9" stroke="#4a3424" stroke-width="7.0" stroke-linecap="round" opacity="0.55"/><path d="M81.8 118.6l16.3 -10.6" stroke="#2e2218" stroke-width="3.3" stroke-linecap="round" opacity="0.55"/><path d="M158.5 155.3l24.0 -13.6" stroke="#55402c" stroke-width="4.5" stroke-linecap="round" opacity="0.55"/><path d="M54.4 77.8l28.2 -4.1" stroke="#3a2a1e" stroke-width="3.8" stroke-linecap="round" opacity="0.55"/><path d="M60.7 84.1l14.6 -6.1" stroke="#4a3424" stroke-width="3.0" stroke-linecap="round" opacity="0.55"/><path d="M124.4 58.2l18.2 -9.3" stroke="#2e2218" stroke-width="5.4" stroke-linecap="round" opacity="0.55"/><path d="M134.5 87.7l20.6 -10.8" stroke="#55402c" stroke-width="4.5" stroke-linecap="round" opacity="0.55"/><path d="M80.3 148.6l15.0 -2.1" stroke="#3a2a1e" stroke-width="6.8" stroke-linecap="round" opacity="0.55"/><path d="M109.7 146.8l9.4 -4.8" stroke="#4a3424" stroke-width="5.2" stroke-linecap="round" opacity="0.55"/><path d="M96.4 151.1l30.6 -7.7" stroke="#2e2218" stroke-width="6.3" stroke-linecap="round" opacity="0.55"/><path d="M59.3 89.5l21.0 -13.6" stroke="#55402c" stroke-width="4.4" stroke-linecap="round" opacity="0.55"/><path d="M88.2 121.6l26.2 -17.2" stroke="#3a2a1e" stroke-width="5.3" stroke-linecap="round" opacity="0.55"/><path d="M58.2 102.4l23.1 -8.8" stroke="#4a3424" stroke-width="4.0" stroke-linecap="round" opacity="0.55"/><path d="M138.5 80.3l10.6 -1.9" stroke="#2e2218" stroke-width="5.9" stroke-linecap="round" opacity="0.55"/><path d="M173.6 117.2l21.7 -2.2" stroke="#55402c" stroke-width="6.9" stroke-linecap="round" opacity="0.55"/><path d="M119.2 124.6l10.6 -3.6" stroke="#3a2a1e" stroke-width="5.5" stroke-linecap="round" opacity="0.55"/><path d="M47.9 118.6l10.4 -1.4" stroke="#4a3424" stroke-width="4.8" stroke-linecap="round" opacity="0.55"/><path d="M67.7 91.3l18.8 -12.5" stroke="#2e2218" stroke-width="4.6" stroke-linecap="round" opacity="0.55"/><path d="M113.2 11.0l11.2 -6.8" stroke="#55402c" stroke-width="4.0" stroke-linecap="round" opacity="0.55"/><path d="M54.2 89.0l19.3 -2.2" stroke="#3a2a1e" stroke-width="5.7" stroke-linecap="round" opacity="0.55"/><path d="M114.9 57.4l22.8 -11.3" stroke="#4a3424" stroke-width="6.7" stroke-linecap="round" opacity="0.55"/><path d="M169.4 88.1l23.8 -5.5" stroke="#2e2218" stroke-width="5.4" stroke-linecap="round" opacity="0.55"/><path d="M53.3 23.4l12.9 -7.9" stroke="#55402c" stroke-width="4.4" stroke-linecap="round" opacity="0.55"/><path d="M84.7 123.5l23.8 -4.5" stroke="#3a2a1e" stroke-width="4.2" stroke-linecap="round" opacity="0.55"/><path d="M133.0 67.7l17.3 -4.1" stroke="#4a3424" stroke-width="5.1" stroke-linecap="round" opacity="0.55"/><path d="M144.7 108.6l15.7 -3.2" stroke="#2e2218" stroke-width="6.8" stroke-linecap="round" opacity="0.55"/><path d="M152.7 139.8l12.9 -4.1" stroke="#55402c" stroke-width="5.1" stroke-linecap="round" opacity="0.55"/><path d="M133.9 1.3l16.5 -10.7" stroke="#3a2a1e" stroke-width="6.3" stroke-linecap="round" opacity="0.55"/><path d="M43.7 61.4l30.3 -8.2" stroke="#4a3424" stroke-width="5.4" stroke-linecap="round" opacity="0.55"/><path d="M22.8 79.3l22.4 -3.1" stroke="#2e2218" stroke-width="3.6" stroke-linecap="round" opacity="0.55"/><path d="M29.5 129.6l30.6 -6.7" stroke="#55402c" stroke-width="3.5" stroke-linecap="round" opacity="0.55"/><path d="M43.0 124.7l28.7 -4.7" stroke="#3a2a1e" stroke-width="6.4" stroke-linecap="round" opacity="0.55"/><path d="M17.5 107.9l29.2 -8.7" stroke="#4a3424" stroke-width="5.3" stroke-linecap="round" opacity="0.55"/><path d="M171.0 120.9l24.8 -9.8" stroke="#2e2218" stroke-width="6.1" stroke-linecap="round" opacity="0.55"/><path d="M45.7 79.3l20.5 -10.7" stroke="#55402c" stroke-width="3.6" stroke-linecap="round" opacity="0.55"/><path d="M81.3 22.0l26.6 -7.0" stroke="#3a2a1e" stroke-width="3.9" stroke-linecap="round" opacity="0.55"/><path d="M44.2 14.5l27.8 -3.1" stroke="#4a3424" stroke-width="4.6" stroke-linecap="round" opacity="0.55"/><path d="M83.3 19.6l12.1 -2.2" stroke="#2e2218" stroke-width="4.0" stroke-linecap="round" opacity="0.55"/><path d="M86.1 94.1l17.5 -4.3" stroke="#55402c" stroke-width="4.2" stroke-linecap="round" opacity="0.55"/><path d="M44.5 152.5l22.5 -14.6" stroke="#3a2a1e" stroke-width="6.5" stroke-linecap="round" opacity="0.55"/><path d="M35.3 48.8l17.1 -2.4" stroke="#4a3424" stroke-width="6.2" stroke-linecap="round" opacity="0.55"/><path d="M88.8 7.8l25.3 -10.2" stroke="#2e2218" stroke-width="6.6" stroke-linecap="round" opacity="0.55"/><path d="M7.9 110.0l11.7 -2.8" stroke="#55402c" stroke-width="4.1" stroke-linecap="round" opacity="0.55"/><path d="M49.7 136.5l21.3 -13.7" stroke="#3a2a1e" stroke-width="6.3" stroke-linecap="round" opacity="0.55"/><path d="M34.5 37.8l22.9 -12.8" stroke="#4a3424" stroke-width="4.6" stroke-linecap="round" opacity="0.55"/><path d="M188.5 120.6l18.6 -6.6" stroke="#2e2218" stroke-width="5.9" stroke-linecap="round" opacity="0.55"/><path d="M37.7 9.8l20.4 -5.6" stroke="#55402c" stroke-width="7.0" stroke-linecap="round" opacity="0.55"/><path d="M45.0 61.0l27.9 -8.9" stroke="#3a2a1e" stroke-width="4.1" stroke-linecap="round" opacity="0.55"/><path d="M178.4 150.9l23.6 -6.7" stroke="#4a3424" stroke-width="7.0" stroke-linecap="round" opacity="0.55"/><path d="M66.4 32.8l25.5 -8.6" stroke="#2e2218" stroke-width="3.4" stroke-linecap="round" opacity="0.55"/><path d="M14.9 112.5l28.0 -8.0" stroke="#55402c" stroke-width="6.1" stroke-linecap="round" opacity="0.55"/><path d="M86.5 120.2l11.1 -6.4" stroke="#3a2a1e" stroke-width="4.5" stroke-linecap="round" opacity="0.55"/><path d="M98.2 43.3l12.4 -8.1" stroke="#4a3424" stroke-width="3.1" stroke-linecap="round" opacity="0.55"/><path d="M146.5 56.4l18.9 -7.5" stroke="#2e2218" stroke-width="6.3" stroke-linecap="round" opacity="0.55"/><path d="M75.3 86.3l26.1 -13.2" stroke="#55402c" stroke-width="5.4" stroke-linecap="round" opacity="0.55"/><path d="M30.4 82.4l13.6 -5.1" stroke="#3a2a1e" stroke-width="4.1" stroke-linecap="round" opacity="0.55"/><path d="M190.7 65.9l26.9 -2.8" stroke="#4a3424" stroke-width="5.2" stroke-linecap="round" opacity="0.55"/><path d="M158.4 44.6l18.4 -2.8" stroke="#2e2218" stroke-width="5.3" stroke-linecap="round" opacity="0.55"/><path d="M43.2 86.8l16.7 -1.9" stroke="#55402c" stroke-width="4.4" stroke-linecap="round" opacity="0.55"/><path d="M24.1 112.2l27.4 -2.9" stroke="#3a2a1e" stroke-width="5.2" stroke-linecap="round" opacity="0.55"/><path d="M127.9 27.8l25.6 -10.8" stroke="#4a3424" stroke-width="4.4" stroke-linecap="round" opacity="0.55"/><path d="M170.4 134.8l22.5 -11.0" stroke="#2e2218" stroke-width="5.4" stroke-linecap="round" opacity="0.55"/><path d="M29.6 23.7l10.8 -2.5" stroke="#55402c" stroke-width="3.8" stroke-linecap="round" opacity="0.55"/><path d="M153.5 75.8l23.5 -5.9" stroke="#3a2a1e" stroke-width="3.5" stroke-linecap="round" opacity="0.55"/><path d="M9.4 88.3l25.7 -4.5" stroke="#4a3424" stroke-width="4.3" stroke-linecap="round" opacity="0.55"/><path d="M73.6 157.6l15.9 -3.3" stroke="#2e2218" stroke-width="3.8" stroke-linecap="round" opacity="0.55"/><path d="M177.9 47.8l15.3 -7.5" stroke="#55402c" stroke-width="6.5" stroke-linecap="round" opacity="0.55"/><path d="M151.0 47.2l22.4 -9.9" stroke="#3a2a1e" stroke-width="3.3" stroke-linecap="round" opacity="0.55"/><path d="M8.5 139.7l20.0 -7.8" stroke="#4a3424" stroke-width="6.6" stroke-linecap="round" opacity="0.55"/><path d="M75.5 136.4l11.9 -4.9" stroke="#2e2218" stroke-width="5.0" stroke-linecap="round" opacity="0.55"/><path d="M36.6 142.7l16.5 -1.7" stroke="#55402c" stroke-width="4.4" stroke-linecap="round" opacity="0.55"/><path d="M114.9 16.3l11.2 -2.3" stroke="#3a2a1e" stroke-width="3.5" stroke-linecap="round" opacity="0.55"/><path d="M170.1 114.9l22.4 -9.3" stroke="#4a3424" stroke-width="4.0" stroke-linecap="round" opacity="0.55"/>
<rect width="192" height="256" fill="url(#light)"/>
<path d="M0 176 L192 168 L192 256 L0 256z" fill="url(#table)"/>
<path d="M-4 184 C40 160 70 200 110 178 C140 162 170 190 196 172 L196 256 L-4 256z" fill="url(#cloth)" opacity="0.95"/>
<path d="M20 200 C50 190 80 214 120 198 M40 226 C80 214 110 236 160 220" stroke="#8a8270" stroke-width="3" fill="none" opacity="0.6"/>
<ellipse cx="96" cy="186" rx="60" ry="12" fill="#000" opacity="0.35"/>
<path d="M38 150 Q96 214 154 150 Z" fill="url(#bowl)" stroke="#0e1a30" stroke-width="3"/>
<ellipse cx="96" cy="150" rx="58" ry="10" fill="#1e3a6a" stroke="#0e1a30" stroke-width="3"/>
<path d="M60 168 Q96 186 132 168" stroke="#bfe0ff" stroke-width="3" fill="none" opacity="0.6"/>
<circle cx="60" cy="150" r="7" fill="url(#grape)" stroke="#1e0e24" stroke-width="1.5"/><circle cx="58" cy="147.5" r="1.6" fill="#e8d0ff" opacity="0.8"/><circle cx="70" cy="150" r="7" fill="url(#grape)" stroke="#1e0e24" stroke-width="1.5"/><circle cx="68" cy="147.5" r="1.6" fill="#e8d0ff" opacity="0.8"/><circle cx="80" cy="150" r="7" fill="url(#grape)" stroke="#1e0e24" stroke-width="1.5"/><circle cx="78" cy="147.5" r="1.6" fill="#e8d0ff" opacity="0.8"/><circle cx="90" cy="150" r="7" fill="url(#grape)" stroke="#1e0e24" stroke-width="1.5"/><circle cx="88" cy="147.5" r="1.6" fill="#e8d0ff" opacity="0.8"/><circle cx="65" cy="159" r="7" fill="url(#grape)" stroke="#1e0e24" stroke-width="1.5"/><circle cx="63" cy="156.5" r="1.6" fill="#e8d0ff" opacity="0.8"/><circle cx="75" cy="159" r="7" fill="url(#grape)" stroke="#1e0e24" stroke-width="1.5"/><circle cx="73" cy="156.5" r="1.6" fill="#e8d0ff" opacity="0.8"/><circle cx="85" cy="159" r="7" fill="url(#grape)" stroke="#1e0e24" stroke-width="1.5"/><circle cx="83" cy="156.5" r="1.6" fill="#e8d0ff" opacity="0.8"/><circle cx="95" cy="159" r="7" fill="url(#grape)" stroke="#1e0e24" stroke-width="1.5"/><circle cx="93" cy="156.5" r="1.6" fill="#e8d0ff" opacity="0.8"/><circle cx="60" cy="168" r="7" fill="url(#grape)" stroke="#1e0e24" stroke-width="1.5"/><circle cx="58" cy="165.5" r="1.6" fill="#e8d0ff" opacity="0.8"/><circle cx="70" cy="168" r="7" fill="url(#grape)" stroke="#1e0e24" stroke-width="1.5"/><circle cx="68" cy="165.5" r="1.6" fill="#e8d0ff" opacity="0.8"/><circle cx="80" cy="168" r="7" fill="url(#grape)" stroke="#1e0e24" stroke-width="1.5"/><circle cx="78" cy="165.5" r="1.6" fill="#e8d0ff" opacity="0.8"/>
<path d="M118 92 C140 92 150 120 146 140 C142 158 112 160 108 140 C104 124 112 112 118 92z" fill="url(#pear)" stroke="#2a3a0e" stroke-width="2.5"/>
<path d="M120 92 q2 -10 8 -12" stroke="#4a2a12" stroke-width="3" fill="none" stroke-linecap="round"/>
<circle cx="88" cy="128" r="24" fill="url(#apple)" stroke="#3a0808" stroke-width="2.5"/>
<path d="M88 106 q-2 -8 4 -12" stroke="#4a2a12" stroke-width="3" fill="none" stroke-linecap="round"/>
<path d="M92 104 q10 -8 18 -2 q-8 6 -18 2z" fill="#5a9a2a" stroke="#1e3a0e" stroke-width="1.5"/>
<ellipse cx="80" cy="120" rx="6" ry="4" fill="#ffffff" opacity="0.5"/>
<ellipse cx="146" cy="160" rx="18" ry="13" fill="url(#lemon)" stroke="#5a3a0a" stroke-width="2.5" transform="rotate(-15 146 160)"/>
<rect width="192" height="256" fill="url(#weave)"/>
</svg>
